<svg xmlns="http://www.w3.org/2000/svg" viewBox="0 0 255.6 100"><g id="Layer_2" data-name="Layer 2"><g id="Layer_2-2" data-name="Layer 2"><path d="M239.22,43.66a2.68,2.68,0,0,0-2.34,2.7v6.25a2.6,2.6,0,0,0,2.85,2.59,2.68,2.68,0,0,0,2.35-2.71V46.25A2.61,2.61,0,0,0,239.22,43.66Z"/><path d="M245.52,18A35.54,35.54,0,0,0,242,18c.54-5.52.68-12-3.68-15.46C235.5.32,231.72.13,228.2,0c-6-.17-13.47.45-16,5.94-1,2.08-1,4.46-1,6.75l0,23.61H183.45a9.54,9.54,0,0,0-16.29-7.65,9.69,9.69,0,0,0-13.58.09,9.79,9.79,0,0,0-13.7-.06,9.49,9.49,0,0,0-16.27,7.62H109.5l0-23.64a15.8,15.8,0,0,0-1-6.74C106,.51,98.67-.12,92.66,0c-3.5.08-7.26.25-10,2.37-4.5,3.42-4.41,10.1-3.89,15.72a10.82,10.82,0,0,0-12.62,6.17,20.88,20.88,0,0,0-1,7.76V68c0,4.11.21,8.74,3.24,11.52,2.72,2.5,6.79,2.64,10.48,2.58a6.91,6.91,0,0,0-.29,1.31c-.08.44-.14.89-.19,1.34a17.78,17.78,0,0,0,0,2.73,18.28,18.28,0,0,0,1.15,5.31,17.36,17.36,0,0,0,2.7,4.71c.45.55.86,1.15,1.59,1.29,1,.2,2,.4,3.08.56a50.66,50.66,0,0,0,6.74.58q2.09,0,4.17-.09c3.94-.26,8.35-1.29,10.38-4.68,1.28-2.14,1.32-4.77,1.33-7.27l0-24.21h14.13a58,58,0,0,0,1.81,21.5,7.55,7.55,0,0,0,2,3.78c1.08.95,2.94,1.16,3.87.07,1.11-1.3.29-3.26-.41-4.81a24.64,24.64,0,0,1-2.06-12.61,9.67,9.67,0,0,0,11.05-1.94,9.79,9.79,0,0,0,13.65,0,10,10,0,0,0,14-.25c2.66,4.73,10.48,3.71,13.66-.68s2.93-10.36,2-15.71a4.25,4.25,0,0,0-.57-1.75c-.84-1.28-2.64-1.39-4.16-1.37l-14.87.17c-3.2,0-7.44-.83-7.64-4-.21-3.42,4.43-4.62,7.85-4.62h11.09c5.77,0,12.62.6,15.47,5.61,1.38,2.41,1.44,5.33,1.47,8.11l.19,21.23c0,3.84,0,7.83-1.6,11.3a5,5,0,0,0-.84,3c.25,1.34,1.72,1.86,2.94,1.74,1.94-.2,3-2,3.44-3.68a17.44,17.44,0,0,0,.42-2.38,122.12,122.12,0,0,0,.68-22.7h14.14l0,23.65a15.65,15.65,0,0,0,1,6.74c2.55,5.44,9.9,6.07,15.9,5.93,3.5-.08,7.26-.25,10-2.37,4.5-3.42,4.41-10.1,3.89-15.73a10.8,10.8,0,0,0,12.62-6.17,20.89,20.89,0,0,0,1-7.76V32c0-4.11-.21-8.73-3.23-11.51A11,11,0,0,0,245.52,18ZM78.65,76.82H75.21A4.84,4.84,0,0,1,70.38,72V28a4.84,4.84,0,0,1,4.83-4.83h3.44ZM104.31,89.7a4.83,4.83,0,0,1-4.83,4.83H88.69a4.84,4.84,0,0,1-4.83-4.83V10.3a4.83,4.83,0,0,1,4.83-4.83H99.48a4.83,4.83,0,0,1,4.83,4.83ZM123.6,58.45H109.51V41.54H123.6Zm13.67,4.71a4.23,4.23,0,0,1-8.46,0V35.21a4.18,4.18,0,0,1,2.84-4,4.25,4.25,0,0,1,5.62,4Zm13.66,0a4.34,4.34,0,0,1-.62,2.29,4.14,4.14,0,0,1-2.77,1.94,4.24,4.24,0,0,1-5.07-4.23V35.22a4.35,4.35,0,0,1,.62-2.3A4.09,4.09,0,0,1,145.87,31a4.24,4.24,0,0,1,5.06,4.23Zm18.87-7.95h8.46v7.95a4.33,4.33,0,0,1-.61,2.29,4.18,4.18,0,0,1-2.79,1.94,4.24,4.24,0,0,1-5.06-4.23Zm-9.13,0h3.93v7.95a4.23,4.23,0,0,1-4.37,4.22,4.35,4.35,0,0,1-4.1-4.4V54.11A9.85,9.85,0,0,0,160.67,55.21Zm-.3-18.87a9.48,9.48,0,0,0-4.24,1V35.51a4.43,4.43,0,0,1,3.81-4.5,3.1,3.1,0,0,1,.43,0,4.24,4.24,0,0,1,4.23,4.23,2.42,2.42,0,0,0,.25,1.12Zm17.89,0h-8.71a2.55,2.55,0,0,0,.25-1.12c0-.15,0-.29,0-.43A4.24,4.24,0,0,1,174.46,31a4.42,4.42,0,0,1,3.8,4.5Zm33,22.11H197.14V53.18a16.81,16.81,0,0,0-4.71-11.64h18.79ZM250.36,72a4.85,4.85,0,0,1-4.84,4.84h-3.44V70a2.61,2.61,0,0,0-2.86-2.59,2.67,2.67,0,0,0-2.34,2.7V89.7A4.85,4.85,0,0,1,232,94.53H221.26a4.84,4.84,0,0,1-4.84-4.83V10.3a4.84,4.84,0,0,1,4.84-4.83H232a4.84,4.84,0,0,1,4.84,4.83V28.87a2.6,2.6,0,0,0,2.85,2.59,2.67,2.67,0,0,0,2.35-2.7V23.18h3.44A4.85,4.85,0,0,1,250.36,28Z"/><rect x="24.05" y="26.53" width="38.08" height="5.08" rx="2.54"/><rect x="11.66" y="54.86" width="47.54" height="5.08" rx="2.54"/><rect x="19.91" y="73.74" width="38.08" height="5.08" rx="2.54"/><rect x="34.82" y="45.45" width="24.38" height="5.08" rx="2.54"/><rect y="45.45" width="32.99" height="5.08" rx="2.54"/><rect x="11.66" y="64.16" width="40.73" height="5.08" rx="2.54"/><rect x="19.91" y="36.05" width="29.82" height="5.08" rx="2.54"/><path d="M15.77,36.05H14.2a2.52,2.52,0,0,0-2,1,1.58,1.58,0,0,1,0,3.13,2.53,2.53,0,0,0,2,1h1.57a2.54,2.54,0,0,0,0-5.08Z"/><path d="M61.17,68.28a1.59,1.59,0,0,1,0-3.17,1.62,1.62,0,0,1,.44.07,2.5,2.5,0,0,0-2-1H57.94a2.54,2.54,0,1,0,0,5.07h1.65a2.5,2.5,0,0,0,2-1A1.62,1.62,0,0,1,61.17,68.28Z"/></g></g></svg>